# xmcd
#
# Track frame offsets: 
#        150
#        15853
#        39526
#        42688
#        70667
#        106199
#        153281
#        168238
#        181303
#        193120
#        205813
#
# Disc length: 3171 seconds
#
# Revision: 0
# Processed by: cddbd v1.5.2PL0 Copyright (c) Steve Scherf et al.
# Submitted via: ExactAudioCopy v0.95b3
#
DISCID=870c610b
DTITLE=Various  - Monterey Pop Festival 1967 Vol. 4  FLAC
DYEAR=1900
DGENRE=
TTITLE0=Big Brothers and Holding Company With Janis Joplin \\ Down On 
TTITLE0=Me
TTITLE1=Big Brothers and Holding Company With Janis Joplin \\ Combinat
TTITLE1=ion Of The Two
TTITLE2=Big Brothers and Holding Company With Janis Joplin \\ Harry
TTITLE3=Big Brothers and Holding Company With Janis Joplin \\ Road Blo
TTITLE3=ck
TTITLE4=Big Brothers and Holding Company With Janis Joplin \\ Ball And
TTITLE4=Chain
TTITLE5=Grateful Dead \\ I've Got A Friend (Aka 'Viola Lee Blues')
TTITLE6=Grateful Dead \\ Out In The Cold, Rain and Snow
TTITLE7=Byrds \\ He Was A Friend Of Mine
TTITLE8=Byrds \\ Hey Joe
TTITLE9=Byrds \\ So You Want To Be A Rock and Roll Star
TTITLE10=Interviews
EXTD=
EXTT0=
EXTT1=
EXTT2=
EXTT3=
EXTT4=
EXTT5=
EXTT6=
EXTT7=
EXTT8=
EXTT9=
EXTT10=
PLAYORDER=
